<svg width="37" height="37" viewBox="0 0 37 37" fill="none" xmlns="http://www.w3.org/2000/svg">
<path d="M1.82455 20.0866H3.65186V32.8667C3.65186 34.8811 5.28652 36.5158 7.30096 36.5158H29.2066C31.221 36.5158 32.8557 34.8811 32.8557 32.8667V20.0866H34.683C35.6902 20.0866 36.5103 19.2665 36.5103 18.2593C36.5103 17.7749 36.3177 17.3126 35.9764 16.9659L19.5417 0.536633C18.8317 -0.178878 17.6759 -0.178878 16.9659 0.536633L0.536633 16.9659C-0.178878 17.6814 -0.178878 18.8372 0.536633 19.5472C0.877877 19.8884 1.34571 20.0811 1.83006 20.0811L1.82455 20.0866ZM18.2538 4.4114L29.2066 15.3642V32.8612H7.30096V15.3642L18.2538 4.4114Z" fill="#2574EA"/>
<path d="M18.2539 28.6397C15.7056 28.6837 13.2783 27.5554 11.6712 25.5795C10.9722 24.7539 10.3998 23.8293 9.97046 22.8386L12.3592 22.0515C12.6619 22.712 13.0527 23.3284 13.5205 23.8898C14.6763 25.3208 16.4156 26.1464 18.2539 26.1409C21.8644 26.1409 23.5762 23.2899 24.1486 22.0625L26.5373 22.8441C25.9759 24.1485 25.1558 25.3319 24.1376 26.3226C22.5634 27.8471 20.4444 28.6837 18.2539 28.6452V28.6397Z" fill="#21D2CD"/>
<path d="M18.2538 15.9641C17.186 15.9641 16.3164 16.8337 16.3164 17.9015C16.3164 18.9693 17.186 19.8389 18.2538 19.8389C19.3216 19.8389 20.1912 18.9748 20.1912 17.9015C20.1912 16.8337 19.3271 15.9641 18.2538 15.9641Z" fill="#2574EA"/>
</svg>
