<svg width="60" height="60" viewBox="0 0 60 60" fill="none" xmlns="http://www.w3.org/2000/svg">
<path d="M3.24339 32.863H6.23298V53.7721C6.23298 57.0679 8.90741 59.7423 12.2032 59.7423H48.0423C51.338 59.7423 54.0124 57.0679 54.0124 53.7721V32.863H57.002C58.6499 32.863 59.9916 31.5213 59.9916 29.8734C59.9916 29.081 59.6765 28.3246 59.1182 27.7573L32.2298 0.877968C31.0682 -0.292656 29.1772 -0.292656 28.0156 0.877968L1.13627 27.7573C-0.0343551 28.9279 -0.0343551 30.8189 1.13627 31.9805C1.69457 32.5388 2.45997 32.854 3.25239 32.854L3.24339 32.863ZM30.1227 7.21735L48.0423 25.1369V53.7631H12.2032V25.1369L30.1227 7.21735Z" fill="#2574EA"/>
<path d="M30.1228 46.8565C25.9536 46.9285 21.9824 45.0825 19.353 41.8498C18.2094 40.4991 17.2729 38.9863 16.5706 37.3654L20.4786 36.0777C20.9739 37.1583 21.6132 38.1668 22.3787 39.0853C24.2697 41.4266 27.1152 42.7773 30.1228 42.7683C36.0299 42.7683 38.8304 38.1038 39.7669 36.0957L43.675 37.3744C42.7565 39.5086 41.4148 41.4446 39.7489 43.0654C37.1735 45.5598 33.7067 46.9285 30.1228 46.8655V46.8565Z" fill="#21D2CD"/>
<path d="M30.1227 26.1184C28.3758 26.1184 26.953 27.5412 26.953 29.2881C26.953 31.035 28.3758 32.4578 30.1227 32.4578C31.8696 32.4578 33.2924 31.044 33.2924 29.2881C33.2924 27.5412 31.8786 26.1184 30.1227 26.1184Z" fill="#2574EA"/>
</svg>
